<svg xmlns="http://www.w3.org/2000/svg" width="60" height="60" viewBox="0 0 24 24" fill="#25D366"><path d="M12.031 6.172c-3.181 0-5.767 2.586-5.768 5.766-.001 1.298.38 2.27 1.019 3.287l-.711 2.592 2.654-.696c1.001.572 2.156.886 3.422.886h.003c3.181 0 5.768-2.586 5.769-5.766.001-3.18-2.587-5.769-5.766-5.769zm9.316 9.251c-1.272 2.87-4.145 4.907-7.391 5.37-3.245.462-6.529-1.077-8.125-3.805l-3.328.874.887-3.238c-1.341-2.909-.949-6.326.974-8.834 1.923-2.507 5.09-3.791 8.217-3.329 3.125.461 5.717 2.646 6.723 5.666.992 3.013.313 6.32-2.957 7.296z"/></svg>
